<?xml version="1.0" standalone="no"?>
<!DOCTYPE svg PUBLIC "-//W3C//DTD SVG 20010904//EN"
 "http://www.w3.org/TR/2001/REC-SVG-20010904/DTD/svg10.dtd">
<svg version="1.0" xmlns="http://www.w3.org/2000/svg"
 width="512.000000pt" height="512.000000pt" viewBox="0 0 512.000000 512.000000"
 preserveAspectRatio="xMidYMid meet">

<g transform="translate(0.000000,512.000000) scale(0.100000,-0.100000)"
fill="#000000" stroke="none">
<path d="M2275 3999 c-719 -63 -1410 -387 -1929 -904 -152 -151 -272 -297
-310 -375 -28 -59 -31 -74 -31 -160 0 -86 3 -101 31 -160 38 -78 159 -225 311
-376 782 -777 1907 -1088 2973 -822 593 147 1162 488 1563 936 206 230 231
277 231 422 0 145 -25 192 -231 422 -460 514 -1129 878 -1813 987 -248 40
-550 51 -795 30z m491 -214 c427 -73 792 -368 949 -770 65 -164 79 -249 79
-455 0 -206 -14 -291 -79 -455 -132 -338 -413 -605 -755 -719 -159 -53 -268
-69 -440 -64 -340 11 -632 143 -864 388 -395 421 -450 1057 -131 1536 186 279
493 480 820 538 108 19 312 20 421 1z m-1257 -227 c-182 -190 -309 -435 -371
-709 -19 -88 -23 -132 -23 -289 0 -157 4 -201 23 -289 62 -275 188 -517 371
-708 38 -40 66 -73 62 -73 -21 0 -218 84 -339 146 -331 169 -650 419 -893 701
-102 118 -129 166 -129 224 0 59 21 96 124 216 252 293 578 548 920 717 140
70 286 133 312 135 6 1 -19 -31 -57 -71z m2206 8 c408 -176 777 -447 1066
-783 101 -118 129 -165 129 -223 0 -55 -24 -98 -118 -210 -255 -304 -623 -586
-988 -756 -91 -43 -241 -104 -254 -104 -3 0 25 33 62 73 185 197 311 440 370
710 32 147 32 427 0 574 -59 270 -185 513 -371 711 -80 86 -78 87 104 8z"/>
<path d="M2432 3076 c-187 -46 -352 -216 -391 -404 -37 -178 18 -360 146 -487
209 -207 541 -207 746 0 210 212 209 541 0 751 -129 129 -322 183 -501 140z
m273 -228 c60 -31 114 -86 146 -148 20 -38 24 -60 24 -140 0 -84 -3 -101 -27
-145 -32 -60 -87 -114 -148 -146 -38 -20 -60 -24 -140 -24 -80 0 -102 4 -140
24 -61 32 -116 86 -148 146 -24 44 -27 61 -27 145 0 108 17 154 84 223 67 72
136 98 246 93 62 -2 91 -8 130 -28z"/>
</g>
</svg>
